<?xml version="1.0" standalone="no"?>
<!DOCTYPE svg PUBLIC "-//W3C//DTD SVG 1.1//EN" "http://www.w3.org/Graphics/SVG/1.1/DTD/svg11.dtd">
<svg xmlns="http://www.w3.org/2000/svg" xmlns:xlink="http://www.w3.org/1999/xlink" id="Layer_1" data-name="Layer 1" viewBox="0 0 500 500" width="500" height="500">
  <defs>
    <style>
      .cls-1 {
        fill: url(#linear-gradient-12);
      }

      .cls-1, .cls-2, .cls-3, .cls-4, .cls-5, .cls-6, .cls-7, .cls-8, .cls-9, .cls-10, .cls-11, .cls-12, .cls-13, .cls-14, .cls-15, .cls-16, .cls-17, .cls-18, .cls-19, .cls-20, .cls-21, .cls-22, .cls-23, .cls-24, .cls-25, .cls-26, .cls-27, .cls-28, .cls-29, .cls-30 {
        stroke-width: 0px;
      }

      .cls-2 {
        fill: url(#linear-gradient-17);
      }

      .cls-3 {
        fill: url(#linear-gradient-19);
      }

      .cls-4 {
        fill: url(#linear-gradient);
      }

      .cls-5 {
        fill: url(#linear-gradient-21);
      }

      .cls-31 {
        fill: url(#linear-gradient-6);
      }

      .cls-32 {
        clip-path: url(#clippath-2);
      }

      .cls-6 {
        fill: #e4e821;
      }

      .cls-7 {
        fill: url(#linear-gradient-15);
      }

      .cls-8 {
        fill: url(#linear-gradient-11);
      }

      .cls-9 {
        fill: url(#linear-gradient-5);
      }

      .cls-33 {
        fill: none;
        stroke: #e4e821;
        stroke-miterlimit: 10;
        stroke-width: .6px;
      }

      .cls-10 {
        fill: url(#linear-gradient-31);
      }

      .cls-34 {
        clip-path: url(#clippath-1);
      }

      .cls-11 {
        fill: url(#linear-gradient-13);
      }

      .cls-12 {
        fill: url(#linear-gradient-23);
      }

      .cls-13 {
        fill: url(#linear-gradient-25);
      }

      .cls-14 {
        fill: url(#linear-gradient-16);
      }

      .cls-15 {
        fill: url(#linear-gradient-22);
      }

      .cls-16 {
        fill: #4d5847;
      }

      .cls-17 {
        fill: url(#linear-gradient-20);
      }

      .cls-18 {
        fill: url(#linear-gradient-14);
      }

      .cls-19 {
        fill: url(#linear-gradient-2);
      }

      .cls-20 {
        fill: url(#linear-gradient-7);
      }

      .cls-35 {
        clip-path: url(#clippath);
      }

      .cls-21 {
        fill: url(#linear-gradient-27);
      }

      .cls-22 {
        fill: url(#linear-gradient-8);
      }

      .cls-23 {
        fill: url(#linear-gradient-24);
      }

      .cls-24 {
        fill: url(#linear-gradient-26);
      }

      .cls-25 {
        fill: url(#linear-gradient-18);
      }

      .cls-36 {
        fill: url(#linear-gradient-9);
      }

      .cls-26 {
        fill: url(#linear-gradient-30);
      }

      .cls-37 {
        fill: url(#linear-gradient-3);
      }

      .cls-27 {
        fill: url(#linear-gradient-29);
      }

      .cls-28 {
        fill: url(#linear-gradient-28);
      }

      .cls-29 {
        fill: url(#linear-gradient-10);
      }

      .cls-30 {
        fill: url(#linear-gradient-4);
      }
    </style>
    <linearGradient id="linear-gradient" x1="126.82" y1="248.65" x2="233.71" y2="248.65" gradientUnits="userSpaceOnUse">
      <stop offset="0" stop-color="#e4e821"/>
      <stop offset="1" stop-color="#231f20"/>
    </linearGradient>
    <linearGradient id="linear-gradient-2" x1="153.8" y1="226.25" x2="157.92" y2="226.25" xlink:href="#linear-gradient"/>
    <linearGradient id="linear-gradient-3" x1="333.31" y1="368.73" x2="335.6" y2="368.73" xlink:href="#linear-gradient"/>
    <linearGradient id="linear-gradient-4" x1="333.31" y1="368.73" x2="335.6" y2="368.73" xlink:href="#linear-gradient"/>
    <clipPath id="clippath">
      <rect class="cls-30" x="333.31" y="343.59" width="2.29" height="50.27"/>
    </clipPath>
    <linearGradient id="linear-gradient-5" x1="333.42" y1="368.74" x2="335.29" y2="368.74" xlink:href="#linear-gradient"/>
    <linearGradient id="linear-gradient-6" x1="333.31" y1="128.43" x2="335.6" y2="128.43" xlink:href="#linear-gradient"/>
    <linearGradient id="linear-gradient-7" x1="333.31" y1="128.43" x2="335.6" y2="128.43" xlink:href="#linear-gradient"/>
    <clipPath id="clippath-1">
      <rect class="cls-20" x="333.31" y="103.44" width="2.29" height="49.97"/>
    </clipPath>
    <linearGradient id="linear-gradient-8" x1="333.36" y1="128.38" x2="335.23" y2="128.38" xlink:href="#linear-gradient"/>
    <linearGradient id="linear-gradient-9" x1="429.54" y1="248.5" x2="479" y2="248.5" xlink:href="#linear-gradient"/>
    <linearGradient id="linear-gradient-10" x1="429.54" y1="248.5" x2="479" y2="248.5" xlink:href="#linear-gradient"/>
    <clipPath id="clippath-2">
      <rect class="cls-29" x="429.54" y="247.36" width="49.46" height="2.29"/>
    </clipPath>
    <linearGradient id="linear-gradient-11" x1="429.72" y1="248.49" x2="479.18" y2="248.49" xlink:href="#linear-gradient"/>
    <linearGradient id="linear-gradient-12" x1="401.38" y1="163.62" x2="437.01" y2="163.62" xlink:href="#linear-gradient"/>
    <linearGradient id="linear-gradient-13" x1="401.59" y1="333.5" x2="437.08" y2="333.5" xlink:href="#linear-gradient"/>
    <linearGradient id="linear-gradient-14" x1="422.75" y1="203.8" x2="468.74" y2="203.8" xlink:href="#linear-gradient"/>
    <linearGradient id="linear-gradient-15" x1="279.75" y1="137.1" x2="299.39" y2="137.1" xlink:href="#linear-gradient"/>
    <linearGradient id="linear-gradient-16" x1="369.35" y1="360.06" x2="388.88" y2="360.06" xlink:href="#linear-gradient"/>
    <linearGradient id="linear-gradient-17" x1="422.09" y1="295.73" x2="467.62" y2="295.73" xlink:href="#linear-gradient"/>
    <linearGradient id="linear-gradient-18" x1="371.25" y1="138.02" x2="391.77" y2="138.02" xlink:href="#linear-gradient"/>
    <linearGradient id="linear-gradient-19" x1="276.89" y1="359.04" x2="297.41" y2="359.04" xlink:href="#linear-gradient"/>
    <linearGradient id="linear-gradient-20" x1="309.93" y1="354.91" x2="316.5" y2="354.91" xlink:href="#linear-gradient"/>
    <linearGradient id="linear-gradient-21" x1="352.15" y1="141.99" x2="358.78" y2="141.99" xlink:href="#linear-gradient"/>
    <linearGradient id="linear-gradient-22" x1="428.01" y1="269.64" x2="453.53" y2="269.64" xlink:href="#linear-gradient"/>
    <linearGradient id="linear-gradient-23" x1="413.39" y1="188.21" x2="435.71" y2="188.21" xlink:href="#linear-gradient"/>
    <linearGradient id="linear-gradient-24" x1="266.1" y1="158.25" x2="281.76" y2="158.25" xlink:href="#linear-gradient"/>
    <linearGradient id="linear-gradient-25" x1="387.02" y1="338.81" x2="402.36" y2="338.81" xlink:href="#linear-gradient"/>
    <linearGradient id="linear-gradient-26" x1="428.09" y1="228.51" x2="453.92" y2="228.51" xlink:href="#linear-gradient"/>
    <linearGradient id="linear-gradient-27" x1="311.13" y1="141.99" x2="317.49" y2="141.99" xlink:href="#linear-gradient"/>
    <linearGradient id="linear-gradient-28" x1="351.16" y1="355.16" x2="357.53" y2="355.16" xlink:href="#linear-gradient"/>
    <linearGradient id="linear-gradient-29" x1="413.01" y1="309.78" x2="434.8" y2="309.78" xlink:href="#linear-gradient"/>
    <linearGradient id="linear-gradient-30" x1="387.76" y1="158.95" x2="403.41" y2="158.95" xlink:href="#linear-gradient"/>
    <linearGradient id="linear-gradient-31" x1="265.19" y1="338.21" x2="280.87" y2="338.21" xlink:href="#linear-gradient"/>
  </defs>
  <path class="cls-6" d="M97.36,276.34c1.55,0,2.75-.52,3.78-1.55s1.72-2.41,1.72-3.78v-48.12c0-1.37-.52-2.58-1.72-3.44-1.03-1.03-2.41-1.37-3.78-1.37h-1.03v-.86h17.36c1.72,0,3.61-.17,5.84-.52,2.06-.34,3.61-.69,4.47-1.03v10.83h-1.03v-1.55c0-1.37-.52-2.58-1.37-3.44-.86-1.03-2.06-1.55-3.44-1.55h-9.8v26.46h16.33c1.2,0,2.06-.52,2.92-1.37s1.2-1.89,1.2-3.09v-1.03h.86v13.58h-.86v-1.37c0-1.2-.34-2.06-1.2-2.92-.69-.86-1.72-1.2-2.92-1.37h-16.33v25.6h18.22c4.3,0,7.56-.86,9.62-2.75,2.23-1.89,4.12-4.64,5.5-8.42h.86l-4.98,13.92h-41.24v-.86h1.03Z"/>
  <path class="cls-4" d="M233.71,290.26c-4.64,1.37-8.76,1.72-12.37.86-3.78-1.03-7.22-2.58-9.97-4.81-2.75-2.23-5.5-4.81-8.25-7.73l-45.2-50.18v42.96c0,2.06.86,3.44,2.58,4.47.86.52,1.72.69,2.58.69h1.72v.86h-17.7v-.86h1.55c1.37,0,2.58-.52,3.61-1.55,1.03-1.03,1.55-2.23,1.55-3.78v-47.09c-.34-.34-.86-1.2-1.72-2.23-.86-1.2-1.55-2.06-2.06-2.75s-1.37-1.55-2.41-2.75c-1.03-1.2-1.89-2.06-2.75-2.75s-1.72-1.55-2.92-2.41c-1.72-1.37-3.61-2.23-5.5-2.75-1.89-.52-3.61-.86-4.98-.86s-2.75.17-4.3.69l-.34-.86c2.75-1.2,5.33-1.72,7.9-1.72s4.81.34,6.53.86c1.89.52,3.78,1.72,5.84,3.27s3.78,2.92,5.16,4.3,2.92,3.09,4.81,5.16l43.3,48.12v-44.16c0-1.55-.52-2.75-1.72-3.78-1.03-1.03-2.23-1.55-3.61-1.55h-1.55v-.86h17.7v.86h-1.03c-1.37,0-2.75.52-3.78,1.55s-1.55,2.23-1.55,3.61v48.46c.52.69,1.37,1.55,2.41,2.92,1.03,1.2,1.89,2.06,2.23,2.58.34.52,1.03,1.2,1.89,2.23s1.55,1.72,2.23,2.23c.52.52,1.37,1.2,2.23,2.06s1.72,1.55,2.41,1.89c.86.52,1.72,1.03,2.58,1.72,1.37.86,2.92,1.37,4.64,1.72s3.27.69,4.3.69c1.2,0,2.23-.17,3.61-.34l.34,1.03Z"/>
  <path class="cls-16" d="M221.69,276.34c1.55,0,2.75-.52,3.78-1.55,1.03-1.03,1.72-2.41,1.72-3.78v-48.12c0-1.37-.52-2.58-1.72-3.44-1.03-1.03-2.41-1.37-3.78-1.37h-1.03v-.86h17.36c1.72,0,3.61-.17,5.84-.52,2.06-.34,3.61-.69,4.47-1.03v10.83h-.86v-1.55c0-1.37-.52-2.58-1.37-3.44-.86-1.03-2.06-1.55-3.44-1.55h-9.8v26.46h16.33c1.2,0,2.06-.52,2.92-1.37s1.2-1.89,1.2-3.09v-1.03h.69v13.58h-.86v-1.37c0-1.2-.34-2.06-1.2-2.92-.69-.86-1.72-1.2-2.92-1.37h-16.33v25.6h18.22c4.3,0,7.56-.86,9.62-2.75,2.23-1.89,4.12-4.64,5.5-8.42h.86l-4.98,13.92h-41.41v-.86h1.2Z"/>
  <path class="cls-16" d="M350.65,292.15c-7.22,0-13.23-2.23-17.87-6.87-3.44-3.44-5.67-7.73-6.87-12.89-5.5,4.12-12.03,6.19-19.93,6.19-6.19,0-12.03-1.37-17.01-4.12-5.16-2.75-9.11-6.53-12.03-11.17-2.92-4.81-4.3-10.14-4.3-15.98s1.37-11.34,4.3-16.15c2.92-4.81,6.87-8.42,12.03-11.17,5.16-2.58,10.83-3.95,17.18-3.95,7.9,0,14.78,1.89,20.79,5.84l1.72,12.03h-.69c-1.72-6.7-5.67-11.17-11.69-13.58-2.92-1.2-6.36-1.72-10.14-1.72-7.73,0-14.09,2.75-19.25,8.08s-7.73,12.2-7.73,20.45,2.58,15.12,7.73,20.62c5.16,5.5,11.51,8.25,19.25,8.25,3.78,0,7.22-.69,10.65-1.89,3.44-1.37,6.36-3.09,8.59-5.5v-15.12c0-1.2-.34-2.23-1.03-2.92s-1.89-1.03-3.27-1.03h-1.37v-.86h16.84v.86h-1.37c-1.37,0-2.58.34-3.27,1.03-.69.69-1.03,1.55-1.03,2.92v13.23c.34,9.11,3.27,15.47,8.76,19.42,3.95,2.75,8.94,4.12,15.12,4.12,2.58,0,5.33-.34,8.42-.86l.17.86c-4.47,1.2-8.76,1.89-12.72,1.89Z"/>
  <path class="cls-16" d="M346.34,276.34c1.55,0,2.75-.52,3.78-1.55,1.03-1.03,1.72-2.41,1.72-3.78v-48.12c0-1.37-.52-2.58-1.72-3.44-1.03-1.03-2.41-1.37-3.78-1.37h-1.03v-.86h17.36c1.72,0,3.61-.17,5.84-.52,2.06-.34,3.61-.69,4.47-1.03v10.83h-.86v-1.55c0-1.37-.52-2.58-1.37-3.44-.86-1.03-2.06-1.55-3.44-1.55h-9.8v26.46h16.33c1.2,0,2.06-.52,2.92-1.37s1.2-1.89,1.2-3.09v-1.03h.86v13.58h-.86v-1.37c0-1.2-.34-2.06-1.2-2.92-.69-.86-1.72-1.2-2.92-1.37h-16.33v25.6h18.22c4.3,0,7.56-.86,9.62-2.75,2.23-1.89,4.12-4.64,5.5-8.42h.86l-4.98,13.92h-41.41v-.86h1.03Z"/>
  <g>
    <path class="cls-6" d="M104.66,199.56v1.03c-4.45,0-8.92,2.06-13.37,6.2-4.47,4.12-8.45,8.88-11.74,14.68-3.28,5.77-5.86,11.77-7.97,17.77-2.11,6.2-3.06,11.38-3.06,15.71v15.29c0,2.49,1.19,4.35,3.76,5.58,1.17.62,2.34,1.03,3.75,1.03h1.65v1.03h-25.59v-1.03h1.41c1.89,0,3.76-.62,5.17-1.86,1.41-1.24,2.34-2.7,2.34-4.55v-15.29c0-4.54-1.17-9.92-3.28-16.12-2.11-6.2-4.93-12.2-8.44-17.77-3.52-5.79-7.51-10.55-12.22-14.47-4.69-3.94-9.38-6-14.07-6v-1.86h2.82c1.41,0,3.28.21,5.64.62,2.34.41,4.69,1.03,6.81,1.86,2.11.82,4.23,1.86,6.1,3.51,1.87,1.46,3.75,2.9,5.16,4.14,1.41,1.24,2.82,2.89,4.23,4.97,1.41,2.06,2.58,3.92,3.52,5.36.93,1.46,1.87,3.32,3.04,5.79,1.41,2.9,2.59,5.58,3.28,7.65.95,2.06,1.41,3.32,1.41,3.52s.24.41.48.82c.22.62.46,1.03.46,1.44.24-.41.7-1.65,1.65-3.73.93-2.06,1.63-3.92,2.34-5.57.7-1.67,1.87-3.94,3.52-7.03,1.65-3.11,3.06-5.38,4.23-7.23,1.41-1.86,3.04-3.73,4.93-6,2.1-2.27,3.99-3.94,6.1-5.17,4.91-2.89,10.31-4.33,15.95-4.33Z"/>
    <line class="cls-33" x1="104.66" y1="200.06" x2="104.42" y2="200.06"/>
  </g>
  <line class="cls-19" x1="153.8" y1="224.1" x2="157.92" y2="228.4"/>
  <g>
    <rect class="cls-37" x="333.31" y="343.59" width="2.29" height="50.27"/>
    <g class="cls-35">
      <path class="cls-9" d="M334.35,344.07c-.26,0-.47.09-.66.28s-.27.4-.27.66v47.46c0,.26.09.47.27.66.19.18.41.27.66.27s.48-.09.66-.27c.19-.19.28-.4.28-.66v-47.46c0-.26-.09-.48-.28-.66-.18-.19-.4-.28-.66-.28Z"/>
    </g>
  </g>
  <g>
    <rect class="cls-31" x="333.31" y="103.44" width="2.29" height="49.97"/>
    <g class="cls-34">
      <path class="cls-22" d="M334.29,153.14c.26,0,.48-.1.66-.28.19-.18.28-.4.28-.66v-47.56c.02-.27-.06-.51-.24-.71-.19-.2-.42-.3-.69-.3s-.51.11-.69.3c-.19.2-.27.44-.25.71v47.56c0,.26.09.48.28.66.18.18.39.28.65.28Z"/>
    </g>
  </g>
  <g>
    <rect class="cls-36" x="429.54" y="247.36" width="49.46" height="2.29"/>
    <g class="cls-32">
      <path class="cls-8" d="M478.23,247.56h-47.5c-.28-.02-.51.06-.72.25-.2.18-.3.41-.3.69s.1.5.3.68c.21.19.44.27.72.25h47.51c.26,0,.47-.09.66-.28s.28-.4.28-.66-.1-.47-.28-.66c-.19-.18-.4-.28-.66-.28h0Z"/>
    </g>
  </g>
  <path class="cls-1" d="M401.66,181.17c.19.18.4.27.66.27s.47-.09.66-.27l33.72-33.75c.2-.18.3-.4.3-.67,0-.26-.08-.48-.27-.67s-.41-.28-.68-.28-.48.1-.67.3l-33.72,33.75c-.18.18-.28.4-.28.66s.1.47.28.66Z"/>
  <path class="cls-11" d="M403.18,316.03c-.3-.29-.64-.36-1.02-.2s-.57.45-.57.87c0,.26.09.47.27.66l33.57,33.56c.18.21.4.31.67.32.28,0,.51-.08.7-.27s.29-.43.28-.7c0-.28-.13-.5-.33-.68l-33.56-33.57Z"/>
  <path class="cls-18" d="M422.83,212.29c-.06.14-.08.3-.07.45.02.16.07.3.15.43.09.13.21.23.34.31.13.07.29.12.44.12.13,0,.24-.03.35-.07l44.18-17.74c.21-.11.38-.28.47-.51.08-.22.08-.46,0-.68-.09-.23-.25-.39-.47-.5-.22-.11-.46-.12-.69-.04l-44.17,17.75c-.24.09-.41.25-.52.49Z"/>
  <path class="cls-7" d="M281.56,114.66c-.09-.24-.26-.41-.5-.52-.23-.1-.47-.1-.72,0-.24.09-.41.26-.51.49-.11.24-.11.48,0,.72l17.76,44.21c.16.38.46.58.87.57.13,0,.24-.02.36-.06.24-.09.41-.26.51-.5s.1-.47,0-.72l-17.76-44.2Z"/>
  <path class="cls-14" d="M371.14,337.69c-.11-.22-.28-.38-.5-.47-.23-.09-.47-.09-.7,0-.23.09-.39.25-.5.47-.1.23-.12.46-.04.7l17.69,44.04c.11.22.28.38.5.47.23.09.47.09.69,0,.23-.1.39-.25.5-.47s.12-.45.04-.68l-17.69-44.05Z"/>
  <path class="cls-2" d="M467.04,304.19l-43.65-18.64c-.24-.1-.47-.1-.72,0s-.41.26-.51.5c-.11.23-.11.47,0,.72.09.23.26.41.49.51l43.66,18.63c.12.05.24.08.37.08.42,0,.71-.2.86-.58.11-.23.11-.47,0-.71-.09-.24-.26-.41-.5-.51Z"/>
  <path class="cls-25" d="M371.82,160.72c.12.04.24.07.37.08.42,0,.71-.2.87-.58l18.63-43.66c.1-.24.1-.47,0-.72-.1-.24-.27-.41-.5-.51-.24-.11-.48-.11-.72,0-.24.1-.41.26-.51.5l-18.64,43.65c-.1.24-.11.48,0,.72.1.23.26.41.5.51Z"/>
  <path class="cls-3" d="M296.85,336.33c-.24-.1-.48-.1-.72,0-.24.1-.41.26-.52.5l-18.65,43.71c-.1.23-.1.47,0,.72s.26.41.5.51c.12.04.24.07.37.07.41,0,.7-.2.86-.58l18.65-43.71c.09-.23.09-.47,0-.71-.1-.23-.26-.4-.49-.5Z"/>
  <path class="cls-17" d="M315.75,342.17c-.25-.04-.48,0-.7.14-.21.13-.35.33-.4.57l-4.7,23.66c-.05.26,0,.49.14.71.19.28.44.41.77.41.52,0,.82-.25.92-.75l4.7-23.66c.05-.25,0-.48-.14-.7-.14-.21-.34-.33-.59-.38Z"/>
  <path class="cls-5" d="M358.05,129.05c-.26-.04-.49,0-.71.14s-.35.34-.39.59l-4.78,24.06c-.05.25,0,.48.14.7.13.21.33.35.57.4h.19c.51,0,.81-.26.91-.75l4.78-24.06c.04-.25,0-.47-.14-.69-.13-.21-.33-.34-.57-.39Z"/>
  <path class="cls-15" d="M428.43,266.55c-.21.13-.35.33-.4.57-.05.25,0,.49.13.71.14.21.33.34.58.39l23.66,4.7c.06,0,.12,0,.18,0,.52,0,.82-.26.92-.76.04-.25,0-.48-.14-.7-.13-.21-.33-.35-.58-.4l-23.66-4.69c-.26-.04-.49.02-.7.18Z"/>
  <path class="cls-12" d="M435.55,180.85c-.14-.21-.34-.34-.6-.39-.25-.05-.48,0-.7.14l-20.44,13.67c-.21.14-.35.34-.39.6-.05.25,0,.48.13.7s.34.35.6.4c.25.04.48,0,.7-.14l20.44-13.68c.21-.14.35-.34.4-.59.04-.26,0-.49-.14-.71Z"/>
  <path class="cls-23" d="M280.04,169.07c.23.34.55.47.96.39s.65-.32.73-.73c.05-.25,0-.49-.13-.71l-13.8-20.63c-.15-.21-.35-.32-.59-.37-.25-.04-.47,0-.69.14-.21.13-.34.33-.39.57-.05.25,0,.47.12.69l13.8,20.64Z"/>
  <path class="cls-13" d="M388.74,328.22c-.14-.21-.34-.35-.59-.39-.26-.05-.49,0-.71.13s-.34.33-.39.58,0,.48.13.7l13.49,20.16c.22.33.54.47.93.39s.64-.3.74-.69c.05-.25,0-.48-.13-.7l-13.47-20.19Z"/>
  <path class="cls-24" d="M453.9,226.09c-.05-.25-.19-.46-.39-.6-.21-.14-.45-.2-.71-.15l-23.95,4.5c-.24.04-.43.16-.57.36-.14.19-.21.4-.19.64.03.24.13.44.3.61.17.16.38.24.62.25h.18l23.96-4.5c.26-.05.46-.19.6-.4.15-.21.2-.45.15-.71Z"/>
  <path class="cls-21" d="M312.97,129.81c-.05-.23-.19-.42-.39-.55-.21-.13-.44-.18-.68-.13-.25.04-.44.16-.59.37-.14.2-.21.42-.17.67l4.49,23.95c.1.51.41.76.92.77h.18c.25-.04.45-.18.6-.39.14-.21.19-.45.14-.7l-4.5-23.98Z"/>
  <path class="cls-28" d="M353.03,343.06c-.04-.27-.17-.47-.38-.64-.21-.15-.46-.21-.72-.16-.26.05-.47.19-.61.41s-.19.47-.13.73l4.48,23.89c.1.51.4.76.92.77h.17c.26-.04.46-.18.61-.39.14-.21.19-.45.14-.7l-4.48-23.92Z"/>
  <path class="cls-27" d="M413.17,302.46c-.14.21-.19.45-.14.7.05.25.19.44.39.58l19.91,13.62c.21.14.45.19.7.14.25-.05.46-.18.6-.39s.2-.45.14-.7c-.04-.25-.18-.45-.38-.58l-19.9-13.6c-.21-.15-.45-.21-.71-.17-.26.05-.47.18-.62.4Z"/>
  <path class="cls-26" d="M388.17,169.78c.21.15.45.2.71.15.25-.05.45-.18.6-.39l13.82-20.22c.12-.21.14-.43.09-.66s-.19-.41-.38-.55c-.2-.13-.41-.19-.64-.15-.24.03-.44.13-.59.31l-13.84,20.22c-.14.21-.2.45-.15.7.05.26.18.46.39.6Z"/>
  <path class="cls-10" d="M280.85,327.92c-.04-.24-.18-.44-.38-.58-.21-.14-.45-.19-.7-.14-.26.05-.46.18-.6.39l-13.82,20.2c-.14.21-.19.44-.14.7.05.25.18.45.39.59.16.12.34.17.53.17.33,0,.59-.13.77-.41l13.81-20.19c.15-.22.2-.47.14-.72Z"/>
</svg>